<svg version="1.1" xmlns="http://www.w3.org/2000/svg" viewBox="0 0 2042.9419555664062 698.7387390136719" width="2042.9419555664062" height="698.7387390136719"><!-- svg-source:excalidraw --><metadata/><defs><style class="style-fonts">
      </style></defs><rect x="0" y="0" width="2042.9419555664062" height="698.7387390136719" fill="#ffffff"/><g stroke-linecap="round" transform="translate(389.37076568603516 10) rotate(0 130.0928955078125 26.25)"><path d="M0 0 L260.19 0 L260.19 52.5 L0 52.5" stroke="none" stroke-width="0" fill="#81C784"/><path d="M0 0 C103 0, 206 0, 260.19 0 M0 0 C69.16 0, 138.31 0, 260.19 0 M260.19 0 C260.19 15.19, 260.19 30.38, 260.19 52.5 M260.19 0 C260.19 14.49, 260.19 28.97, 260.19 52.5 M260.19 52.5 C162.79 52.5, 65.4 52.5, 0 52.5 M260.19 52.5 C208.01 52.5, 155.84 52.5, 0 52.5 M0 52.5 C0 39.95, 0 27.4, 0 0 M0 52.5 C0 35.46, 0 18.42, 0 0" stroke="#1e1e1e" stroke-width="2" fill="none"/></g><g transform="translate(417.76444244384766 24.75) rotate(0 101.69921875 11.5)"><text x="101.69921875" y="16.900390625" font-family="Helvetica, sans-serif, Segoe UI Emoji" font-size="20px" fill="#1e1e1e" text-anchor="middle" style="white-space: pre;" direction="ltr" dominant-baseline="alphabetic">User visits Home Page</text></g><g stroke-linecap="round" transform="translate(319.5861358642578 112.5) rotate(0 199.87753295898438 26.25)"><path d="M0 0 L399.76 0 L399.76 52.5 L0 52.5" stroke="none" stroke-width="0" fill="#FFB74D"/><path d="M0 0 C118.47 0, 236.94 0, 399.76 0 M0 0 C124.64 0, 249.29 0, 399.76 0 M399.76 0 C399.76 20.04, 399.76 40.08, 399.76 52.5 M399.76 0 C399.76 16.43, 399.76 32.86, 399.76 52.5 M399.76 52.5 C264.49 52.5, 129.23 52.5, 0 52.5 M399.76 52.5 C319.77 52.5, 239.78 52.5, 0 52.5 M0 52.5 C0 33.3, 0 14.1, 0 0 M0 52.5 C0 39.51, 0 26.52, 0 0" stroke="#1e1e1e" stroke-width="2" fill="none"/></g><g transform="translate(369.9714813232422 127.25) rotate(0 149.4921875 11.5)"><text x="149.4921875" y="16.900390625" font-family="Helvetica, sans-serif, Segoe UI Emoji" font-size="20px" fill="#1e1e1e" text-anchor="middle" style="white-space: pre;" direction="ltr" dominant-baseline="alphabetic">Fills and submits registration form</text></g><g stroke-linecap="round" transform="translate(236.7313995361328 304.36936950683594) rotate(0 282.7322692871094 26.25)"><path d="M0 0 L565.46 0 L565.46 52.5 L0 52.5" stroke="none" stroke-width="0" fill="#FFF176"/><path d="M0 0 C215.48 0, 430.97 0, 565.46 0 M0 0 C143.74 0, 287.48 0, 565.46 0 M565.46 0 C565.46 15.2, 565.46 30.4, 565.46 52.5 M565.46 0 C565.46 10.57, 565.46 21.15, 565.46 52.5 M565.46 52.5 C371.01 52.5, 176.56 52.5, 0 52.5 M565.46 52.5 C350.11 52.5, 134.76 52.5, 0 52.5 M0 52.5 C0 32.29, 0 12.08, 0 0 M0 52.5 C0 37.75, 0 22.99, 0 0" stroke="#1e1e1e" stroke-width="2" fill="none"/></g><g transform="translate(298.7898406982422 319.11936950683594) rotate(0 220.673828125 11.5)"><text x="220.673828125" y="16.900390625" font-family="Helvetica, sans-serif, Segoe UI Emoji" font-size="20px" fill="#1e1e1e" text-anchor="middle" style="white-space: pre;" direction="ltr" dominant-baseline="alphabetic">Backend receives form data → saves to database</text></g><g stroke-linecap="round" transform="translate(187.2874298095703 533.7387390136719) rotate(0 332.1762390136719 26.25)"><path d="M0 0 L664.35 0 L664.35 52.5 L0 52.5" stroke="none" stroke-width="0" fill="#E57373"/><path d="M0 0 C249.89 0, 499.79 0, 664.35 0 M0 0 C194.14 0, 388.28 0, 664.35 0 M664.35 0 C664.35 12.94, 664.35 25.87, 664.35 52.5 M664.35 0 C664.35 10.68, 664.35 21.35, 664.35 52.5 M664.35 52.5 C489.58 52.5, 314.81 52.5, 0 52.5 M664.35 52.5 C510.64 52.5, 356.93 52.5, 0 52.5 M0 52.5 C0 33.25, 0 14, 0 0 M0 52.5 C0 33.96, 0 15.42, 0 0" stroke="#1e1e1e" stroke-width="2" fill="none"/></g><g transform="translate(262.6765594482422 548.4887390136719) rotate(0 256.787109375 11.5)"><text x="256.787109375" y="16.900390625" font-family="Helvetica, sans-serif, Segoe UI Emoji" font-size="20px" fill="#1e1e1e" text-anchor="middle" style="white-space: pre;" direction="ltr" dominant-baseline="alphabetic">Redirects user back to Home Page (confirmation optional)</text></g><g stroke-linecap="round" transform="translate(1057.5562934875488 10) rotate(0 135.9206085205078 26.25)"><path d="M0 0 L271.84 0 L271.84 52.5 L0 52.5" stroke="none" stroke-width="0" fill="#64B5F6"/><path d="M0 0 C84.09 0, 168.18 0, 271.84 0 M0 0 C60.72 0, 121.44 0, 271.84 0 M271.84 0 C271.84 11.78, 271.84 23.56, 271.84 52.5 M271.84 0 C271.84 15.03, 271.84 30.06, 271.84 52.5 M271.84 52.5 C210.02 52.5, 148.2 52.5, 0 52.5 M271.84 52.5 C216.12 52.5, 160.39 52.5, 0 52.5 M0 52.5 C0 35.46, 0 18.41, 0 0 M0 52.5 C0 33.64, 0 14.79, 0 0" stroke="#1e1e1e" stroke-width="2" fill="none"/></g><g transform="translate(1091.2015113830566 24.75) rotate(0 102.275390625 11.5)"><text x="102.275390625" y="16.900390625" font-family="Helvetica, sans-serif, Segoe UI Emoji" font-size="20px" fill="#1e1e1e" text-anchor="middle" style="white-space: pre;" direction="ltr" dominant-baseline="alphabetic">Admin visits login page</text></g><g stroke-linecap="round" transform="translate(1021.7102851867676 112.5) rotate(0 171.76661682128906 26.25)"><path d="M0 0 L343.53 0 L343.53 52.5 L0 52.5" stroke="none" stroke-width="0" fill="#7986CB"/><path d="M0 0 C116.19 0, 232.38 0, 343.53 0 M0 0 C69.79 0, 139.58 0, 343.53 0 M343.53 0 C343.53 14.05, 343.53 28.1, 343.53 52.5 M343.53 0 C343.53 14.53, 343.53 29.06, 343.53 52.5 M343.53 52.5 C244.92 52.5, 146.32 52.5, 0 52.5 M343.53 52.5 C262.47 52.5, 181.41 52.5, 0 52.5 M0 52.5 C0 33.31, 0 14.13, 0 0 M0 52.5 C0 38.17, 0 23.85, 0 0" stroke="#1e1e1e" stroke-width="2" fill="none"/></g><g transform="translate(1062.3099098205566 127.25) rotate(0 131.1669921875 11.5)"><text x="131.1669921875" y="16.900390625" font-family="Helvetica, sans-serif, Segoe UI Emoji" font-size="20px" fill="#1e1e1e" text-anchor="middle" style="white-space: pre;" direction="ltr" dominant-baseline="alphabetic">Backend authenticates (JWT)</text></g><g stroke-linecap="round" transform="translate(1077.8575325012207 215) rotate(0 115.61936950683594 115.61936950683594)"><path d="M116 0 L231.24 116 L116 231.24 L0 116" stroke="none" stroke-width="0" fill="#BA68C8" fill-rule="evenodd"/><path d="M116 0 C153.32 37.56, 190.63 75.13, 231.24 116 M116 0 C154.07 38.32, 192.13 76.64, 231.24 116 M231.24 116 C187.05 160.18, 142.87 204.37, 116 231.24 M231.24 116 C196.98 150.26, 162.73 184.51, 116 231.24 M116 231.24 C87.17 202.59, 58.33 173.95, 0 116 M116 231.24 C85.6 201.04, 55.21 170.84, 0 116 M0 116 C23.57 92.43, 47.14 68.86, 116 0 M0 116 C44.4 71.6, 88.8 27.2, 116 0" stroke="#1e1e1e" stroke-width="2" fill="none"/></g><g transform="translate(1155.8742485046387 307.80968475341797) rotate(0 37.79296875 23)"><text x="37.79296875" y="16.900390625" font-family="Helvetica, sans-serif, Segoe UI Emoji" font-size="20px" fill="#1e1e1e" text-anchor="middle" style="white-space: pre;" direction="ltr" dominant-baseline="alphabetic">Is admin</text><text x="37.79296875" y="39.900390625" font-family="Helvetica, sans-serif, Segoe UI Emoji" font-size="20px" fill="#1e1e1e" text-anchor="middle" style="white-space: pre;" direction="ltr" dominant-baseline="alphabetic">valid?</text></g><g stroke-linecap="round" transform="translate(901.6399078369141 533.7387390136719) rotate(0 144.32432556152344 26.25)"><path d="M0 0 L288.65 0 L288.65 52.5 L0 52.5" stroke="none" stroke-width="0" fill="#81C784"/><path d="M0 0 C76.72 0, 153.44 0, 288.65 0 M0 0 C83.51 0, 167.02 0, 288.65 0 M288.65 0 C288.65 14.49, 288.65 28.97, 288.65 52.5 M288.65 0 C288.65 19.65, 288.65 39.3, 288.65 52.5 M288.65 52.5 C230.77 52.5, 172.89 52.5, 0 52.5 M288.65 52.5 C219.65 52.5, 150.65 52.5, 0 52.5 M0 52.5 C0 35.46, 0 18.42, 0 0 M0 52.5 C0 41.82, 0 31.15, 0 0" stroke="#1e1e1e" stroke-width="2" fill="none"/></g><g transform="translate(930.9105224609375 548.4887390136719) rotate(0 115.0537109375 11.5)"><text x="115.0537109375" y="16.900390625" font-family="Helvetica, sans-serif, Segoe UI Emoji" font-size="20px" fill="#1e1e1e" text-anchor="middle" style="white-space: pre;" direction="ltr" dominant-baseline="alphabetic">Access Admin Dashboard</text></g><g stroke-linecap="round" transform="translate(1240.288558959961 533.7387390136719) rotate(0 100.70101165771484 26.25)"><path d="M0 0 L201.4 0 L201.4 52.5 L0 52.5" stroke="none" stroke-width="0" fill="#FFB74D"/><path d="M0 0 C62.8 0, 125.6 0, 201.4 0 M0 0 C76.89 0, 153.77 0, 201.4 0 M201.4 0 C201.4 16.43, 201.4 32.86, 201.4 52.5 M201.4 0 C201.4 17.76, 201.4 35.53, 201.4 52.5 M201.4 52.5 C161.1 52.5, 120.81 52.5, 0 52.5 M201.4 52.5 C127.75 52.5, 54.11 52.5, 0 52.5 M0 52.5 C0 39.51, 0 26.52, 0 0 M0 52.5 C0 37.39, 0 22.28, 0 0" stroke="#1e1e1e" stroke-width="2" fill="none"/></g><g transform="translate(1268.7288284301758 548.4887390136719) rotate(0 72.2607421875 11.5)"><text x="72.2607421875" y="16.900390625" font-family="Helvetica, sans-serif, Segoe UI Emoji" font-size="20px" fill="#1e1e1e" text-anchor="middle" style="white-space: pre;" direction="ltr" dominant-baseline="alphabetic">Redirect to login</text></g><g stroke-linecap="round" transform="translate(10 636.2387390136719) rotate(0 343.2474670410156 26.25)"><path d="M0 0 L686.49 0 L686.49 52.5 L0 52.5" stroke="none" stroke-width="0" fill="#FFF176"/><path d="M0 0 C174.5 0, 349.01 0, 686.49 0 M0 0 C198.78 0, 397.57 0, 686.49 0 M686.49 0 C686.49 10.57, 686.49 21.15, 686.49 52.5 M686.49 0 C686.49 18.05, 686.49 36.11, 686.49 52.5 M686.49 52.5 C425.05 52.5, 163.6 52.5, 0 52.5 M686.49 52.5 C422.23 52.5, 157.97 52.5, 0 52.5 M0 52.5 C0 37.75, 0 22.99, 0 0 M0 52.5 C0 32.93, 0 13.35, 0 0" stroke="#1e1e1e" stroke-width="2" fill="none"/></g><g transform="translate(93.86758422851562 650.9887390136719) rotate(0 259.3798828125 11.5)"><text x="259.3798828125" y="16.900390625" font-family="Helvetica, sans-serif, Segoe UI Emoji" font-size="20px" fill="#1e1e1e" text-anchor="middle" style="white-space: pre;" direction="ltr" dominant-baseline="alphabetic">View registrations → fetch data → serialize → render table</text></g><g stroke-linecap="round" transform="translate(746.4949340820312 636.2387390136719) rotate(0 299.46929931640625 26.25)"><path d="M0 0 L598.94 0 L598.94 52.5 L0 52.5" stroke="none" stroke-width="0" fill="#E57373"/><path d="M0 0 C175.03 0, 350.05 0, 598.94 0 M0 0 C147.58 0, 295.16 0, 598.94 0 M598.94 0 C598.94 10.68, 598.94 21.35, 598.94 52.5 M598.94 0 C598.94 13.81, 598.94 27.62, 598.94 52.5 M598.94 52.5 C460.36 52.5, 321.79 52.5, 0 52.5 M598.94 52.5 C379.32 52.5, 159.7 52.5, 0 52.5 M0 52.5 C0 33.96, 0 15.42, 0 0 M0 52.5 C0 34.92, 0 17.34, 0 0" stroke="#1e1e1e" stroke-width="2" fill="none"/></g><g transform="translate(823.0833740234375 650.9887390136719) rotate(0 222.880859375 11.5)"><text x="222.880859375" y="16.900390625" font-family="Helvetica, sans-serif, Segoe UI Emoji" font-size="20px" fill="#1e1e1e" text-anchor="middle" style="white-space: pre;" direction="ltr" dominant-baseline="alphabetic">Delete registration → validate → delete → redirect</text></g><g stroke-linecap="round" transform="translate(1395.4335327148438 636.2387390136719) rotate(0 318.75421142578125 26.25)"><path d="M0 0 L637.51 0 L637.51 52.5 L0 52.5" stroke="none" stroke-width="0" fill="#64B5F6"/><path d="M0 0 C142.39 0, 284.79 0, 637.51 0 M0 0 C143.04 0, 286.09 0, 637.51 0 M637.51 0 C637.51 15.03, 637.51 30.06, 637.51 52.5 M637.51 0 C637.51 11.94, 637.51 23.88, 637.51 52.5 M637.51 52.5 C506.82 52.5, 376.14 52.5, 0 52.5 M637.51 52.5 C430.55 52.5, 223.6 52.5, 0 52.5 M0 52.5 C0 33.64, 0 14.79, 0 0 M0 52.5 C0 40.49, 0 28.48, 0 0" stroke="#1e1e1e" stroke-width="2" fill="none"/></g><g transform="translate(1464.627197265625 650.9887390136719) rotate(0 249.560546875 11.5)"><text x="249.560546875" y="16.900390625" font-family="Helvetica, sans-serif, Segoe UI Emoji" font-size="20px" fill="#1e1e1e" text-anchor="middle" style="white-space: pre;" direction="ltr" dominant-baseline="alphabetic">Generate PDF → fetch data → render PDF → download</text></g><g stroke-linecap="round"><g transform="translate(519.4639999999999 63) rotate(0 0 24.5)"><path d="M0 0 C0 8.17, 0 40.83, 0 49 M0 0 C0 8.17, 0 40.83, 0 49" stroke="black" stroke-width="2" fill="none"/></g><g transform="translate(519.4639999999999 63) rotate(0 0 24.5)"><path d="M-8.38 25.98 C-6.68 30.65, -4.97 35.33, 0 49 M-8.38 25.98 C-6.14 32.14, -3.89 38.3, 0 49" stroke="black" stroke-width="2" fill="none"/></g><g transform="translate(519.4639999999999 63) rotate(0 0 24.5)"><path d="M8.38 25.98 C6.68 30.65, 4.97 35.33, 0 49 M8.38 25.98 C6.14 32.14, 3.89 38.3, 0 49" stroke="black" stroke-width="2" fill="none"/></g></g><mask/><g stroke-linecap="round"><g transform="translate(519.4639999999999 165.5) rotate(0 0 69.18450000000001)"><path d="M0 0 C0 23.06, 0 115.31, 0 138.37 M0 0 C0 23.06, 0 115.31, 0 138.37" stroke="black" stroke-width="2" fill="none"/></g><g transform="translate(519.4639999999999 165.5) rotate(0 0 69.18450000000001)"><path d="M-8.55 114.88 C-5.73 122.64, -2.9 130.4, 0 138.37 M-8.55 114.88 C-5.27 123.88, -1.99 132.89, 0 138.37" stroke="black" stroke-width="2" fill="none"/></g><g transform="translate(519.4639999999999 165.5) rotate(0 0 69.18450000000001)"><path d="M8.55 114.88 C5.73 122.64, 2.9 130.4, 0 138.37 M8.55 114.88 C5.27 123.88, 1.99 132.89, 0 138.37" stroke="black" stroke-width="2" fill="none"/></g></g><mask/><g stroke-linecap="round"><g transform="translate(519.4639999999999 357.369) rotate(0 0 87.935)"><path d="M0 0 C0 29.31, 0 146.56, 0 175.87 M0 0 C0 29.31, 0 146.56, 0 175.87" stroke="black" stroke-width="2" fill="none"/></g><g transform="translate(519.4639999999999 357.369) rotate(0 0 87.935)"><path d="M-8.55 152.38 C-6.08 159.17, -3.6 165.97, 0 175.87 M-8.55 152.38 C-6.19 158.86, -3.83 165.34, 0 175.87" stroke="black" stroke-width="2" fill="none"/></g><g transform="translate(519.4639999999999 357.369) rotate(0 0 87.935)"><path d="M8.55 152.38 C6.08 159.17, 3.6 165.97, 0 175.87 M8.55 152.38 C6.19 158.86, 3.83 165.34, 0 175.87" stroke="black" stroke-width="2" fill="none"/></g></g><mask/><g stroke-linecap="round"><g transform="translate(1193.477 63) rotate(0 0 24.5)"><path d="M0 0 C0 8.17, 0 40.83, 0 49 M0 0 C0 8.17, 0 40.83, 0 49" stroke="black" stroke-width="2" fill="none"/></g><g transform="translate(1193.477 63) rotate(0 0 24.5)"><path d="M-8.38 25.98 C-5.18 34.77, -1.98 43.56, 0 49 M-8.38 25.98 C-5.76 33.18, -3.14 40.39, 0 49" stroke="black" stroke-width="2" fill="none"/></g><g transform="translate(1193.477 63) rotate(0 0 24.5)"><path d="M8.38 25.98 C5.18 34.77, 1.98 43.56, 0 49 M8.38 25.98 C5.76 33.18, 3.14 40.39, 0 49" stroke="black" stroke-width="2" fill="none"/></g></g><mask/><g stroke-linecap="round"><g transform="translate(1193.977 165.5) rotate(0 -0.25 24.75)"><path d="M0 0 C-0.08 8.25, -0.42 41.25, -0.5 49.5 M0 0 C-0.08 8.25, -0.42 41.25, -0.5 49.5" stroke="black" stroke-width="2" fill="none"/></g><g transform="translate(1193.977 165.5) rotate(0 -0.25 24.75)"><path d="M-8.73 26.16 C-6.35 32.92, -3.96 39.68, -0.5 49.5 M-8.73 26.16 C-7.07 30.86, -5.41 35.56, -0.5 49.5" stroke="black" stroke-width="2" fill="none"/></g><g transform="translate(1193.977 165.5) rotate(0 -0.25 24.75)"><path d="M8.2 26.33 C5.68 33.04, 3.16 39.75, -0.5 49.5 M8.2 26.33 C6.45 31, 4.7 35.66, -0.5 49.5" stroke="black" stroke-width="2" fill="none"/></g></g><mask/><g mask="url(#mask-TSuswHBIg50B6oIMR5xku)" stroke-linecap="round"><g transform="translate(1138.401 391.663) rotate(0 -49.64209259259269 70.78800000000001)"><path d="M0 0 C-15.41 16.39, -77.03 74.73, -92.44 98.33 C-107.84 121.92, -92.44 134.37, -92.44 141.58 M0 0 C-15.41 16.39, -77.03 74.73, -92.44 98.33 C-107.84 121.92, -92.44 134.37, -92.44 141.58" stroke="black" stroke-width="2" fill="none"/></g><g transform="translate(1138.401 391.663) rotate(0 -49.64209259259269 70.78800000000001)"><path d="M-106.3 124.98 C-102.88 129.07, -99.47 133.16, -92.44 141.58 M-106.3 124.98 C-103.48 128.35, -100.66 131.73, -92.44 141.58" stroke="black" stroke-width="2" fill="none"/></g><g transform="translate(1138.401 391.663) rotate(0 -49.64209259259269 70.78800000000001)"><path d="M-92.38 119.95 C-92.4 125.28, -92.41 130.61, -92.44 141.58 M-92.38 119.95 C-92.39 124.35, -92.41 128.75, -92.44 141.58" stroke="black" stroke-width="2" fill="none"/></g></g><mask id="mask-TSuswHBIg50B6oIMR5xku"><rect x="0" y="0" fill="#fff" width="1330.8380000000002" height="633.239"/><rect x="1029.6505234374997" y="478.48900000000003" fill="#000" width="32.626953125" height="23" opacity="1"/></mask><g transform="translate(1029.6505234375 478.489) rotate(0 59.108383969907436 -16.037999999999954)"><text x="16.3134765625" y="16.900390625" font-family="Helvetica, sans-serif, Segoe UI Emoji" font-size="20px" fill="black" text-anchor="middle" style="white-space: pre;" direction="ltr" dominant-baseline="alphabetic">Yes</text></g><g mask="url(#mask-RMUhfjvH2XkbBZxlJz5MH)" stroke-linecap="round"><g transform="translate(1249.553 391.663) rotate(0 49.10505555555551 70.78800000000001)"><path d="M0 0 C15.24 16.39, 76.2 74.73, 91.44 98.33 C106.68 121.92, 91.44 134.37, 91.44 141.58 M0 0 C15.24 16.39, 76.2 74.73, 91.44 98.33 C106.68 121.92, 91.44 134.37, 91.44 141.58" stroke="black" stroke-width="2" fill="none"/></g><g transform="translate(1249.553 391.663) rotate(0 49.10505555555551 70.78800000000001)"><path d="M91.31 119.95 C91.34 124.8, 91.37 129.66, 91.44 141.58 M91.31 119.95 C91.35 126.14, 91.38 132.33, 91.44 141.58" stroke="black" stroke-width="2" fill="none"/></g><g transform="translate(1249.553 391.663) rotate(0 49.10505555555551 70.78800000000001)"><path d="M105.24 124.93 C102.14 128.66, 99.05 132.4, 91.44 141.58 M105.24 124.93 C101.29 129.69, 97.34 134.46, 91.44 141.58" stroke="black" stroke-width="2" fill="none"/></g></g><mask id="mask-RMUhfjvH2XkbBZxlJz5MH"><rect x="0" y="0" fill="#fff" width="1440.99" height="633.239"/><rect x="1328.206796875" y="478.48900000000003" fill="#000" width="25.56640625" height="23" opacity="1"/></mask><g transform="translate(1328.206796875 478.489) rotate(0 -29.54874131944439 -16.037999999999954)"><text x="12.783203125" y="16.900390625" font-family="Helvetica, sans-serif, Segoe UI Emoji" font-size="20px" fill="black" text-anchor="middle" style="white-space: pre;" direction="ltr" dominant-baseline="alphabetic">No</text></g><g stroke-linecap="round"><g transform="translate(901.64 571.166) rotate(0 -294.50735185185187 32.28649999999999)"><path d="M0 0 C-91.4 6.68, -456.99 29.31, -548.39 40.07 C-639.79 50.84, -548.39 60.49, -548.39 64.57 M0 0 C-91.4 6.68, -456.99 29.31, -548.39 40.07 C-639.79 50.84, -548.39 60.49, -548.39 64.57" stroke="black" stroke-width="2" fill="none"/></g><g transform="translate(901.64 571.166) rotate(0 -294.50735185185187 32.28649999999999)"><path d="M-560.62 65.36 C-557.35 65.15, -554.07 64.94, -548.39 64.57 M-560.62 65.36 C-557.23 65.14, -553.85 64.92, -548.39 64.57" stroke="black" stroke-width="2" fill="none"/></g><g transform="translate(901.64 571.166) rotate(0 -294.50735185185187 32.28649999999999)"><path d="M-558.26 57.32 C-555.62 59.26, -552.98 61.2, -548.39 64.57 M-558.26 57.32 C-555.53 59.33, -552.8 61.33, -548.39 64.57" stroke="black" stroke-width="2" fill="none"/></g></g><mask/><g stroke-linecap="round"><g transform="translate(1045.964 586.739) rotate(0 0 24.5)"><path d="M0 0 C0 8.17, 0 40.83, 0 49 M0 0 C0 8.17, 0 40.83, 0 49" stroke="black" stroke-width="2" fill="none"/></g><g transform="translate(1045.964 586.739) rotate(0 0 24.5)"><path d="M-8.38 25.98 C-5.17 34.8, -1.95 43.63, 0 49 M-8.38 25.98 C-5.89 32.82, -3.4 39.66, 0 49" stroke="black" stroke-width="2" fill="none"/></g><g transform="translate(1045.964 586.739) rotate(0 0 24.5)"><path d="M8.38 25.98 C5.17 34.8, 1.95 43.63, 0 49 M8.38 25.98 C5.89 32.82, 3.4 39.66, 0 49" stroke="black" stroke-width="2" fill="none"/></g></g><mask/><g stroke-linecap="round"><g transform="translate(1190.289 571.558) rotate(0 281.35316666666665 32.09050000000002)"><path d="M0 0 C87.32 6.61, 436.58 28.98, 523.9 39.68 C611.22 50.38, 523.9 60.1, 523.9 64.18 M0 0 C87.32 6.61, 436.58 28.98, 523.9 39.68 C611.22 50.38, 523.9 60.1, 523.9 64.18" stroke="black" stroke-width="2" fill="none"/></g><g transform="translate(1190.289 571.558) rotate(0 281.35316666666665 32.09050000000002)"><path d="M533.67 56.79 C530.98 58.83, 528.28 60.87, 523.9 64.18 M533.67 56.79 C530.01 59.56, 526.36 62.32, 523.9 64.18" stroke="black" stroke-width="2" fill="none"/></g><g transform="translate(1190.289 571.558) rotate(0 281.35316666666665 32.09050000000002)"><path d="M536.13 64.8 C532.76 64.63, 529.38 64.46, 523.9 64.18 M536.13 64.8 C531.55 64.57, 526.97 64.34, 523.9 64.18" stroke="black" stroke-width="2" fill="none"/></g></g><mask/></svg>
